<?xml version="1.0" encoding="UTF-8" standalone="no"?>
<!-- Generator: Adobe Illustrator 21.0.0, SVG Export Plug-In . SVG Version: 6.00 Build 0)  -->

<svg
   xmlns:dc="http://purl.org/dc/elements/1.1/"
   xmlns:cc="http://creativecommons.org/ns#"
   xmlns:rdf="http://www.w3.org/1999/02/22-rdf-syntax-ns#"
   xmlns:svg="http://www.w3.org/2000/svg"
   xmlns="http://www.w3.org/2000/svg"
   xmlns:sodipodi="http://sodipodi.sourceforge.net/DTD/sodipodi-0.dtd"
   xmlns:inkscape="http://www.inkscape.org/namespaces/inkscape"
   version="1.1"
   id="Capa_1"
   x="0px"
   y="0px"
   viewBox="0 0 512 512"
   style="enable-background:new 0 0 512 512;"
   xml:space="preserve"
   sodipodi:docname="icon-like.svg"
   inkscape:version="0.92.3 (2405546, 2018-03-11)"><metadata
   id="metadata9085"><rdf:RDF><cc:Work
       rdf:about=""><dc:format>image/svg+xml</dc:format><dc:type
         rdf:resource="http://purl.org/dc/dcmitype/StillImage" /><dc:title></dc:title></cc:Work></rdf:RDF></metadata><defs
   id="defs9083" /><sodipodi:namedview
   pagecolor="#ffffff"
   bordercolor="#666666"
   borderopacity="1"
   objecttolerance="10"
   gridtolerance="10"
   guidetolerance="10"
   inkscape:pageopacity="0"
   inkscape:pageshadow="2"
   inkscape:window-width="1366"
   inkscape:window-height="705"
   id="namedview9081"
   showgrid="false"
   inkscape:zoom="0.4609375"
   inkscape:cx="256"
   inkscape:cy="256"
   inkscape:window-x="-8"
   inkscape:window-y="-8"
   inkscape:window-maximized="1"
   inkscape:current-layer="Capa_1" />
<g
   id="g9048"
   style="fill:#ef5350;fill-opacity:1">
	<g
   id="g9046"
   style="fill:#ef5350;fill-opacity:1">
		<path
   d="M463.773,185.083c-20.232-50.308-63.245-81.511-115.062-83.467c-14.654-0.552-30.129,0.805-48.689,4.275    c-6.296,1.177-12.449,2.933-18.399,4.631c-3.595,1.026-7.093,2.022-10.474,2.854c1.569-23.315,9.927-66.503,48.951-86.625    L306.307,0c-30.213,15.579-51.093,43.454-60.384,80.615c-3.101,12.403-4.411,23.882-4.914,32.802    c-3.43-0.839-6.982-1.852-10.632-2.894c-5.951-1.698-12.103-3.454-18.399-4.631c-18.559-3.47-34.027-4.827-48.689-4.275    c-51.817,1.956-94.831,33.159-115.062,83.467C15.655,266.078,33.869,362.36,95.761,436.357    c18.482,22.096,38.842,40.57,60.516,54.908c12.516,8.28,31.448,20.782,51.514,20.735c21.079-0.062,38.46-6.874,48.209-11.746    c9.749,4.872,27.13,11.684,48.21,11.746c0.048,0,0.093,0,0.141,0c20.027-0.001,38.885-12.474,51.373-20.735    c21.673-14.339,42.033-32.812,60.516-54.908C478.131,362.36,496.346,266.078,463.773,185.083z M393.152,417.046    c-16.612,19.861-34.792,36.386-54.034,49.117c-9.479,6.27-23.793,15.74-34.765,15.739c-0.018,0-0.037,0-0.056,0    c-22.624-0.067-39.722-11.268-39.825-11.336l-8.473-5.773l-8.473,5.773c-0.166,0.113-17.171,11.269-39.824,11.336    c-0.019,0-0.037,0-0.056,0c-10.971,0-25.286-9.47-34.763-15.739c-19.243-12.73-37.423-29.256-54.035-49.116    c-54.761-65.471-71.121-150.051-42.696-220.733c15.905-39.55,48.079-63.103,88.273-64.62c12.362-0.466,25.718,0.736,42.022,3.784    c4.918,0.919,10.141,2.41,15.672,3.988c8.576,2.447,17.443,4.978,26.742,5.842l0.695,0.065h12.889l0.696-0.065    c9.298-0.864,18.166-3.395,26.741-5.842c5.531-1.578,10.755-3.069,15.672-3.988c16.304-3.049,29.664-4.249,42.022-3.784    c40.194,1.518,72.369,25.07,88.273,64.62C464.274,266.996,447.914,351.575,393.152,417.046z"
   id="path9044"
   style="fill:#ef5350;fill-opacity:1" />
	</g>
</g>
<g
   id="g9050">
</g>
<g
   id="g9052">
</g>
<g
   id="g9054">
</g>
<g
   id="g9056">
</g>
<g
   id="g9058">
</g>
<g
   id="g9060">
</g>
<g
   id="g9062">
</g>
<g
   id="g9064">
</g>
<g
   id="g9066">
</g>
<g
   id="g9068">
</g>
<g
   id="g9070">
</g>
<g
   id="g9072">
</g>
<g
   id="g9074">
</g>
<g
   id="g9076">
</g>
<g
   id="g9078">
</g>
</svg>