<?xml version="1.0" encoding="UTF-8" standalone="no"?>
<!-- Created with Inkscape (http://www.inkscape.org/) -->

<svg
   xmlns:dc="http://purl.org/dc/elements/1.1/"
   xmlns:cc="http://creativecommons.org/ns#"
   xmlns:rdf="http://www.w3.org/1999/02/22-rdf-syntax-ns#"
   xmlns:svg="http://www.w3.org/2000/svg"
   xmlns="http://www.w3.org/2000/svg"
   xmlns:xlink="http://www.w3.org/1999/xlink"
   xmlns:sodipodi="http://sodipodi.sourceforge.net/DTD/sodipodi-0.dtd"
   xmlns:inkscape="http://www.inkscape.org/namespaces/inkscape"
   width="107.01199mm"
   height="27.997032mm"
   viewBox="0 0 107.01199 27.997032"
   version="1.1"
   id="svg135"
   inkscape:version="0.92.3 (2405546, 2018-03-11)"
   sodipodi:docname="logo-nuttricion-2.svg">
  <defs
     id="defs129">
    <clipPath
       clipPathUnits="userSpaceOnUse"
       id="clipPath93">
      <g
         id="use95"
         inkscape:label="Clip">
        <g
           id="g3964"
           inkscape:label="Clip"
           transform="translate(20.059701,10.029851)">
          <g
             id="g3962"
             style="font-style:normal;font-weight:normal;font-size:50.06232452px;line-height:1.25;font-family:sans-serif;letter-spacing:0px;word-spacing:0px;fill:#000000;fill-opacity:1;stroke:none;stroke-width:1.25155818"
             aria-label="Q ">
            <path
               sodipodi:nodetypes="sssscccccscssccscssccscss"
               inkscape:connector-curvature="0"
               id="path3960"
               transform="translate(-26.328358,12.955223)"
               d="m -96.490234,30.314453 c -5.752606,0 -10.355726,1.636547 -13.810546,4.912109 -3.45482,3.275563 -5.18164,7.57021 -5.18164,12.882813 0,3.634081 0.73255,6.804575 2.19922,9.509766 1.46667,2.70519 3.50392,4.791142 6.11132,6.257812 2.60742,1.450373 5.75258,2.173828 9.435552,2.173828 -0.891717,0.904717 1.294922,0 1.294922,0 3.01482,-0.277037 5.615121,-0.977115 7.798828,-2.101562 3.047413,-1.564448 5.506779,-3.805613 7.380859,-6.722657 1.890374,-2.933338 2.835938,-6.33827 2.835938,-10.216796 0,-5.051862 -1.604073,-9.093883 -4.814453,-12.125 -3.19408,-3.047414 -7.611474,-4.570313 -13.25,-4.570313 z m -1.125,2.101563 c 2.83556,0 5.289741,0.618901 7.359375,1.857422 2.06964,1.222224 3.699045,3.05555 4.888671,5.5 1.189634,2.44445 1.783204,5.394788 1.783204,8.849609 0,3.291859 -0.537728,6.077888 -1.613282,8.359375 -1.07556,2.281486 -2.549748,4.001164 -4.423828,5.158203 -1.87408,1.157039 -4.066538,1.736328 -6.576172,1.736328 -2.705186,0 -5.108714,-0.676701 -7.210934,-2.029297 -2.10223,-1.368892 -3.78034,-3.415232 -5.03516,-6.136718 -1.25481,-2.721488 -1.88281,-5.915358 -1.88281,-9.582032 0,-2.75408 0.53058,-5.180977 1.58984,-7.283203 1.07556,-2.102227 2.54975,-3.699162 4.42383,-4.791015 1.87408,-1.091855 4.10615,-1.638672 6.697266,-1.638672 z"
               style="font-style:normal;font-variant:normal;font-weight:normal;font-stretch:normal;font-family:'Book Antiqua';-inkscape-font-specification:'Book Antiqua';stroke-width:1.25155818" />
          </g>
        </g>
      </g>
    </clipPath>
    <clipPath
       clipPathUnits="userSpaceOnUse"
       id="clipPath93-0">
      <g
         style="fill:#677821"
         id="use95-5"
         inkscape:label="Clip">
        <g
           style="fill:#677821"
           id="g4114"
           inkscape:label="Clip"
           transform="translate(20.059701,10.029851)">
          <g
             id="g4112"
             style="font-style:normal;font-weight:normal;font-size:50.06232452px;line-height:1.25;font-family:sans-serif;letter-spacing:0px;word-spacing:0px;fill:#677821;fill-opacity:1;stroke:none;stroke-width:1.25155818"
             aria-label="Q ">
            <path
               sodipodi:nodetypes="sssscccccscssccscssccscss"
               inkscape:connector-curvature="0"
               id="path4110"
               transform="translate(-26.328358,12.955223)"
               d="m -96.490234,30.314453 c -5.752606,0 -10.355726,1.636547 -13.810546,4.912109 -3.45482,3.275563 -5.18164,7.57021 -5.18164,12.882813 0,3.634081 0.73255,6.804575 2.19922,9.509766 1.46667,2.70519 3.50392,4.791142 6.11132,6.257812 2.60742,1.450373 5.75258,2.173828 9.435552,2.173828 -0.891717,0.904717 1.294922,0 1.294922,0 3.01482,-0.277037 5.615121,-0.977115 7.798828,-2.101562 3.047413,-1.564448 5.506779,-3.805613 7.380859,-6.722657 1.890374,-2.933338 2.835938,-6.33827 2.835938,-10.216796 0,-5.051862 -1.604073,-9.093883 -4.814453,-12.125 -3.19408,-3.047414 -7.611474,-4.570313 -13.25,-4.570313 z m -1.125,2.101563 c 2.83556,0 5.289741,0.618901 7.359375,1.857422 2.06964,1.222224 3.699045,3.05555 4.888671,5.5 1.189634,2.44445 1.783204,5.394788 1.783204,8.849609 0,3.291859 -0.537728,6.077888 -1.613282,8.359375 -1.07556,2.281486 -2.549748,4.001164 -4.423828,5.158203 -1.87408,1.157039 -4.066538,1.736328 -6.576172,1.736328 -2.705186,0 -5.108714,-0.676701 -7.210934,-2.029297 -2.10223,-1.368892 -3.78034,-3.415232 -5.03516,-6.136718 -1.25481,-2.721488 -1.88281,-5.915358 -1.88281,-9.582032 0,-2.75408 0.53058,-5.180977 1.58984,-7.283203 1.07556,-2.102227 2.54975,-3.699162 4.42383,-4.791015 1.87408,-1.091855 4.10615,-1.638672 6.697266,-1.638672 z"
               style="font-style:normal;font-variant:normal;font-weight:normal;font-stretch:normal;font-family:'Book Antiqua';-inkscape-font-specification:'Book Antiqua';fill:#677821;stroke-width:1.25155818" />
          </g>
        </g>
      </g>
    </clipPath>
    <clipPath
       clipPathUnits="userSpaceOnUse"
       id="clipPath93-00">
      <use
         x="0"
         y="0"
         xlink:href="#g89"
         id="use95-1"
         width="100%"
         height="100%" />
    </clipPath>
  </defs>
  <sodipodi:namedview
     id="base"
     pagecolor="#ffffff"
     bordercolor="#666666"
     borderopacity="1.0"
     inkscape:pageopacity="0.0"
     inkscape:pageshadow="2"
     inkscape:zoom="0.49497475"
     inkscape:cx="200.45531"
     inkscape:cy="96.542263"
     inkscape:document-units="mm"
     inkscape:current-layer="layer1"
     showgrid="false"
     inkscape:window-width="1366"
     inkscape:window-height="705"
     inkscape:window-x="-8"
     inkscape:window-y="-8"
     inkscape:window-maximized="1"
     fit-margin-top="0"
     fit-margin-left="0"
     fit-margin-right="0"
     fit-margin-bottom="0" />
  <metadata
     id="metadata132">
    <rdf:RDF>
      <cc:Work
         rdf:about="">
        <dc:format>image/svg+xml</dc:format>
        <dc:type
           rdf:resource="http://purl.org/dc/dcmitype/StillImage" />
        <dc:title></dc:title>
      </cc:Work>
    </rdf:RDF>
  </metadata>
  <g
     inkscape:label="Capa 1"
     inkscape:groupmode="layer"
     id="layer1"
     transform="translate(-50.50036,-124.61833)">
    <path
       inkscape:connector-curvature="0"
       id="path170"
       d="m 61.35662,145.94142 c 2.10355,-0.29816 3.539614,0.4984 4.695426,2.6041 0.715302,1.30313 1.772993,3.9808 1.605493,4.06444 -0.06897,0.0345 -0.337452,-0.1 -0.596793,-0.29848 -0.715572,-0.54769 -1.848826,-0.97824 -3.420453,-1.29947 -1.244648,-0.2545 -1.509525,-0.35922 -2.142748,-0.84826 -0.592427,-0.45764 -0.81847,-0.73348 -1.255657,-1.53298 -0.742985,-1.35884 -1.0137,-1.60058 -0.04998,-1.22659 1.08852,0.30748 1.625109,0.55643 2.089835,0.77119 0.464726,0.21472 1.151825,0.69074 2.009051,1.23544 1.310894,0.83306 1.329259,1.15952 1.453765,1.01087 0.101395,-0.12132 -1.297401,-1.12609 -1.480514,-1.34998 -0.785679,-0.55657 -1.416482,-0.99662 -2.753429,-1.53724 -0.69629,-0.36633 -1.931652,-0.50851 -1.943785,-0.56194 -0.01265,-0.0536 1.164402,-0.94254 1.789857,-1.0312 z"
       style="fill:#7cb342;fill-opacity:1;stroke-width:0.13733171"
       sodipodi:nodetypes="ccsccccccccccccc" />
    <path
       style="fill:#795548;fill-opacity:1;stroke-width:0.23733999"
       d="m 90.92503,143.36212 c -1.849097,-0.55018 -2.296692,-1.67361 -2.296692,-5.76454 0,-1.75172 -0.111044,-3.47525 -0.247129,-3.83012 -0.294315,-0.76823 -0.08131,-1.04189 0.863885,-1.10965 l 0.693142,-0.0498 0.119112,4.17927 c 0.115474,4.05406 0.136987,4.19823 0.714545,4.81181 0.526512,0.55924 0.735313,0.62118 1.803001,0.53478 1.295836,-0.10503 2.258633,-0.65464 2.767397,-1.58023 0.384163,-0.69887 0.403019,-5.41681 0.02562,-6.678 -0.239758,-0.80349 -0.217296,-0.87883 0.339509,-1.13068 0.328024,-0.14821 0.798444,-0.20605 1.045384,-0.12828 0.41841,0.13192 0.449002,0.43748 0.449002,4.48542 0,2.4273 0.109147,4.62853 0.247114,4.98903 0.282119,0.73636 0.143156,0.94113 -0.792908,1.17079 -0.586401,0.14363 -0.697413,0.078 -0.938896,-0.55737 l -0.273767,-0.72045 -0.676248,0.56497 c -0.656492,0.5485 -2.079111,1.07318 -2.805108,1.03453 -0.196431,-0.009 -0.663562,-0.11009 -1.03787,-0.22144 z m 11.32874,-0.003 c -1.07935,-0.4301 -1.31884,-1.61677 -1.1523,-5.70957 l 0.1509,-3.71058 -0.89338,-0.0735 c -0.709913,-0.0585 -0.893374,-0.17043 -0.893374,-0.5464 0,-0.3785 0.183967,-0.48801 0.920674,-0.54801 l 0.92066,-0.075 -0.10077,-1.38262 c -0.0995,-1.3674 -0.0932,-1.38416 0.59245,-1.52033 0.38125,-0.0758 0.78935,-0.0786 0.90692,-0.006 0.11737,0.0723 0.21376,0.88474 0.21376,1.5286 v 1.39743 l 1.25045,-0.0514 c 1.10896,-0.0455 1.25045,0.002 1.25045,0.42145 0,0.40898 -0.9322,0.27698 -1.34737,0.54326 l -1.34742,0.0704 -0.17212,2.50357 c -0.18871,2.75123 -0.0191,5.17155 0.39492,5.66826 0.14695,0.17588 0.57577,0.31965 0.95272,0.31965 0.83462,0 0.9125,0.52474 0.15597,1.05086 -0.59262,0.41211 -1.00269,0.4395 -1.80351,0.12038 z m 20.9602,0 c -1.07936,-0.4301 -1.31884,-1.61677 -1.15232,-5.70957 l 0.15091,-3.71058 -0.89337,-0.0735 c -0.70996,-0.0585 -0.89336,-0.17043 -0.89336,-0.5464 0,-0.3785 0.18397,-0.48801 0.92066,-0.54801 l 0.92066,-0.075 -0.10077,-1.38262 c -0.0995,-1.3674 -0.0932,-1.38416 0.59243,-1.52028 0.38125,-0.0758 0.78935,-0.0786 0.90693,-0.006 0.11737,0.0723 0.21375,0.91183 0.21375,1.52856 v 1.39743 l 1.25045,-0.0517 c 1.10899,-0.0456 1.25047,0.002 1.25047,0.42146 0,0.409 -0.18227,0.48251 -1.34739,0.54326 l -1.34741,0.0704 -0.17195,2.50357 c -0.18871,2.75125 -0.0191,5.17155 0.39492,5.66824 0.14695,0.17588 0.57579,0.31967 0.95274,0.31967 0.8346,0 0.91249,0.52471 0.15597,1.05083 -0.59262,0.41216 -1.00269,0.43953 -1.80351,0.12038 z m 14.03139,-0.0933 c -3.03802,-0.98113 -4.45648,-4.56324 -3.02002,-7.6266 1.66811,-3.55747 7.07834,-4.17455 9.63183,-1.09863 1.63621,1.97101 1.51058,4.94056 -0.29109,6.88129 -1.74202,1.8765 -4.09476,2.56285 -6.32076,1.84396 z m 4.41923,-1.73167 c 2.25414,-1.59374 2.17183,-5.53847 -0.14805,-7.09073 -1.11224,-0.74422 -3.20052,-0.74463 -4.30119,-7.3e-4 -1.43978,0.97299 -1.78393,1.66878 -1.78393,3.60662 0,1.94428 0.34076,2.62791 1.80826,3.62733 0.68094,0.46378 1.04367,0.53868 2.25101,0.46491 0.99342,-0.0606 1.66674,-0.24872 2.17383,-0.60731 z m -63.470178,1.49967 c -0.204784,-0.24522 -0.240075,-1.35422 -0.129552,-4.07962 0.09016,-2.22239 0.05426,-4.22335 -0.08795,-4.92544 -0.132874,-0.65567 -0.149009,-1.27489 -0.03591,-1.38988 0.330429,-0.33625 1.469442,0.0713 1.601588,0.57288 0.150115,0.57071 0.110411,0.57243 1.326127,-0.0573 1.367667,-0.70817 3.458546,-0.72885 4.384771,-0.0432 1.34378,0.99458 1.598249,1.78904 1.770906,5.52761 0.08684,1.88687 0.196084,3.63206 0.241989,3.87826 0.110095,0.59045 -1.070773,1.03956 -1.595877,0.6068 -0.286913,-0.23655 -0.344681,-0.94074 -0.307461,-3.74728 0.04872,-3.68314 -0.18172,-4.67343 -1.215462,-5.22279 -0.755214,-0.40132 -2.313348,-0.27666 -3.460492,0.27665 l -1.078207,0.5201 0.0063,3.08649 c 0.0032,1.69757 0.100446,3.49194 0.216299,3.98754 0.19417,0.82995 0.164415,0.91854 -0.378485,1.12335 -0.782721,0.29561 -0.925892,0.28244 -1.257476,-0.11421 z m 30.050518,0.0604 c -0.11262,-0.17325 -0.21214,-2.38997 -0.22112,-4.92651 -0.009,-2.53645 -0.0626,-4.82455 -0.11911,-5.08462 -0.0745,-0.3428 0.0369,-0.49265 0.4037,-0.54469 0.7296,-0.10361 2.26216,1.05652 1.28014,1.55002 v 0.85386 l 0.82409,-0.95594 c 1.11735,-1.29616 2.06792,-1.68156 2.86635,-1.1621 0.67876,0.44158 0.77757,1.23743 0.23943,1.92856 -0.33652,0.43219 -0.3721,0.43487 -0.6073,0.0454 -0.46178,-0.76492 -1.52969,-0.5165 -2.47036,0.57473 -0.84302,0.97792 -0.85215,1.01168 -0.84641,3.13357 0.003,1.17981 0.115,2.61433 0.24778,3.18787 0.13319,0.57351 0.15724,1.12469 0.0539,1.22486 -0.39364,0.3806 -1.44503,0.49245 -1.651,0.1755 z m 7.86909,0.003 c -0.11073,-0.17551 -0.20412,-2.39472 -0.20763,-4.9312 -0.003,-2.53648 -0.0596,-4.76253 -0.12513,-4.94695 -0.16554,-0.46585 1.33486,-0.91716 1.73342,-0.52144 0.20315,0.20154 0.26478,1.43958 0.21695,4.35325 -0.0381,2.3359 0.0386,4.42015 0.18003,4.88956 0.28338,0.93992 0.1627,1.1269 -0.85853,1.32967 -0.49531,0.0985 -0.80393,0.0414 -0.93919,-0.17307 z m 12.86194,0 c -0.11073,-0.17551 -0.20412,-2.39472 -0.20766,-4.9312 -0.003,-2.53648 -0.0596,-4.76253 -0.12513,-4.94695 -0.16554,-0.46585 1.33488,-0.91716 1.73344,-0.52144 0.20313,0.20154 0.26476,1.43958 0.21694,4.35325 -0.0381,2.3359 0.0386,4.42015 0.18003,4.88956 0.28339,0.93992 0.16271,1.1269 -0.85854,1.32967 -0.49535,0.0985 -0.80396,0.0414 -0.93918,-0.17307 z m 18.73711,-0.0649 c -0.20475,-0.2452 -0.24004,-1.35428 -0.12955,-4.07962 0.0899,-2.22239 0.0541,-4.22342 -0.0881,-4.92547 -0.13287,-0.65567 -0.14901,-1.27492 -0.0359,-1.38992 0.33042,-0.33625 1.46941,0.0713 1.60154,0.57292 0.15012,0.57061 0.11042,0.57243 1.32613,-0.0571 1.36771,-0.70827 3.45859,-0.72896 4.38477,-0.0433 1.34381,0.99448 1.5983,1.78893 1.77091,5.52754 0.0868,1.88686 0.19608,3.63206 0.24199,3.87824 0.11009,0.5905 -1.07074,1.03955 -1.59586,0.60682 -0.28693,-0.23653 -0.3447,-0.94079 -0.30748,-3.74726 0.0487,-3.68315 -0.18172,-4.67347 -1.21545,-5.22282 -0.75523,-0.4013 -2.31335,-0.27663 -3.46049,0.27666 l -1.07819,0.52009 0.006,3.08651 c 0.003,1.69762 0.10044,3.49193 0.21633,3.98753 0.19417,0.82998 0.16422,0.9185 -0.3785,1.12337 -0.78272,0.29558 -0.92589,0.28243 -1.25749,-0.11421 z m -31.804,-12.89782 c -0.976,-1.07091 0.42365,-2.6084 1.64886,-1.81149 0.7274,0.47322 0.77644,1.15886 0.1286,1.80181 -0.60318,0.59893 -1.2374,0.60232 -1.77768,0.009 z m 12.86195,0 c -0.97604,-1.07091 0.42364,-2.6084 1.64883,-1.81149 0.72742,0.47322 0.77646,1.15886 0.12861,1.80181 -0.60319,0.59893 -1.23741,0.60232 -1.77771,0.009 z"
       id="path60"
       inkscape:connector-curvature="0"
       sodipodi:nodetypes="cscccsccccccsccccccccccccsccccsscssccscscccccccscccccscssscscscccscccscccscscccsccscccscccsccccccccccscscccscsccccccccccccccccccccccsccscccscccccccccccccccccccc" />
    <g
       id="g91"
       clip-path="url(#clipPath93-00)"
       transform="matrix(0.50897611,0,0,0.68257118,112.46875,88.237607)"
       style="fill:#795548;fill-opacity:1">
      <g
         inkscape:label="Clip"
         id="g89"
         style="fill:#795548;fill-opacity:1">
        <g
           transform="translate(20.059701,10.029851)"
           inkscape:label="Clip"
           id="g75"
           style="fill:#795548;fill-opacity:1">
          <g
             aria-label="Q "
             style="font-style:normal;font-weight:normal;font-size:50.06232452px;line-height:1.25;font-family:sans-serif;letter-spacing:0px;word-spacing:0px;fill:#795548;fill-opacity:1;stroke:none;stroke-width:1.25155818"
             id="text22">
            <path
               style="font-style:normal;font-variant:normal;font-weight:normal;font-stretch:normal;font-family:'Book Antiqua';-inkscape-font-specification:'Book Antiqua';fill:#795548;fill-opacity:1;stroke-width:1.25155818"
               d="m -96.490234,30.314453 c -5.752606,0 -10.355726,1.636547 -13.810546,4.912109 -3.45482,3.275563 -5.18164,7.57021 -5.18164,12.882813 0,3.634081 0.73255,4.450709 2.19922,7.1559 1.46667,2.70519 3.50392,4.791142 6.11132,6.257812 2.60742,1.450373 5.75258,2.173828 9.435552,2.173828 -0.891717,0.904717 1.294922,0 1.294922,0 3.01482,-0.277037 5.615121,-0.977115 7.798828,-2.101562 3.047413,-1.564448 5.506779,-3.805613 7.380859,-6.722657 1.890374,-2.933338 2.835938,-3.984404 2.835938,-7.86293 0,-5.051862 -1.604073,-9.093883 -4.814453,-12.125 -3.19408,-3.047414 -7.611474,-4.570313 -13.25,-4.570313 z m -1.125,2.101563 c 2.83556,0 5.289741,0.618901 7.359375,1.857422 2.06964,1.222224 3.699045,3.05555 4.888671,5.5 1.189634,2.44445 1.783204,5.394788 1.783204,8.849609 0,3.291859 -0.537728,3.724022 -1.613282,6.005509 -1.07556,2.281486 -2.549748,4.001164 -4.423828,5.158203 -1.87408,1.157039 -4.066538,1.736328 -6.576172,1.736328 -2.705186,0 -5.108714,-0.676701 -7.210934,-2.029297 -2.10223,-1.368892 -3.78034,-3.415232 -5.03516,-6.136718 -1.25481,-2.721488 -1.88281,-3.561492 -1.88281,-7.228166 0,-2.75408 0.53058,-5.180977 1.58984,-7.283203 1.07556,-2.102227 2.54975,-3.699162 4.42383,-4.791015 1.87408,-1.091855 4.10615,-1.638672 6.697266,-1.638672 z"
               transform="translate(-26.328358,12.955223)"
               id="path110"
               inkscape:connector-curvature="0"
               sodipodi:nodetypes="sssscccccscssccscssccscss" />
          </g>
        </g>
      </g>
    </g>
    <rect
       style="fill:#7cb342;fill-opacity:1;stroke-width:0.49839771"
       id="rect219"
       width="2.4699776"
       height="1.1570338"
       x="72.125351"
       y="138.42897" />
    <text
       xml:space="preserve"
       style="font-style:normal;font-weight:normal;font-size:7.25444984px;line-height:1.25;font-family:sans-serif;letter-spacing:0px;word-spacing:0px;fill:#7cb342;fill-opacity:1;stroke:none;stroke-width:0.41852593"
       x="77.261681"
       y="150.80638"
       id="text4146"><tspan
         sodipodi:role="line"
         id="tspan4144"
         x="77.261681"
         y="150.80638"
         style="font-style:normal;font-variant:normal;font-weight:normal;font-stretch:normal;font-size:6.69641495px;font-family:Quicksand;-inkscape-font-specification:Quicksand;fill:#7cb342;fill-opacity:1;stroke:#7cb342;stroke-width:0.41852593;stroke-opacity:1">alimentación consciente</tspan></text>
  </g>
</svg>
