<?xml version="1.0" encoding="UTF-8" standalone="no"?>
<!-- Generator: Adobe Illustrator 19.0.0, SVG Export Plug-In . SVG Version: 6.00 Build 0)  -->

<svg
   xmlns:dc="http://purl.org/dc/elements/1.1/"
   xmlns:cc="http://creativecommons.org/ns#"
   xmlns:rdf="http://www.w3.org/1999/02/22-rdf-syntax-ns#"
   xmlns:svg="http://www.w3.org/2000/svg"
   xmlns="http://www.w3.org/2000/svg"
   xmlns:sodipodi="http://sodipodi.sourceforge.net/DTD/sodipodi-0.dtd"
   xmlns:inkscape="http://www.inkscape.org/namespaces/inkscape"
   version="1.1"
   id="Capa_1"
   x="0px"
   y="0px"
   viewBox="0 0 49 49"
   style="enable-background:new 0 0 49 49;"
   xml:space="preserve"
   sodipodi:docname="save.svg"
   inkscape:version="0.92.3 (2405546, 2018-03-11)"><metadata
   id="metadata10505"><rdf:RDF><cc:Work
       rdf:about=""><dc:format>image/svg+xml</dc:format><dc:type
         rdf:resource="http://purl.org/dc/dcmitype/StillImage" /><dc:title></dc:title></cc:Work></rdf:RDF></metadata><defs
   id="defs10503" /><sodipodi:namedview
   pagecolor="#ffffff"
   bordercolor="#666666"
   borderopacity="1"
   objecttolerance="10"
   gridtolerance="10"
   guidetolerance="10"
   inkscape:pageopacity="0"
   inkscape:pageshadow="2"
   inkscape:window-width="1366"
   inkscape:window-height="705"
   id="namedview10501"
   showgrid="false"
   inkscape:zoom="4.8163265"
   inkscape:cx="24.5"
   inkscape:cy="24.5"
   inkscape:window-x="-8"
   inkscape:window-y="-8"
   inkscape:window-maximized="1"
   inkscape:current-layer="Capa_1" />
<g
   id="g10468"
   style="fill:#444444;fill-opacity:0.81909549">
	<path
   d="M39.914,0H37.5h-28h-9v49h7h33h8V8.586L39.914,0z M35.5,2v14h-24V2H35.5z M9.5,47V28h29v19H9.5z M46.5,47h-6V26h-33v21h-5   V2h7v16h28V2h1.586L46.5,9.414V47z"
   id="path10458"
   style="fill:#444444;fill-opacity:0.81909549" />
	<path
   d="M13.5,33h7c0.553,0,1-0.447,1-1s-0.447-1-1-1h-7c-0.553,0-1,0.447-1,1S12.947,33,13.5,33z"
   id="path10460"
   style="fill:#444444;fill-opacity:0.81909549" />
	<path
   d="M23.5,35h-10c-0.553,0-1,0.447-1,1s0.447,1,1,1h10c0.553,0,1-0.447,1-1S24.053,35,23.5,35z"
   id="path10462"
   style="fill:#444444;fill-opacity:0.81909549" />
	<path
   d="M25.79,35.29c-0.181,0.189-0.29,0.45-0.29,0.71s0.109,0.52,0.29,0.71C25.979,36.89,26.229,37,26.5,37   c0.26,0,0.52-0.11,0.71-0.29c0.18-0.19,0.29-0.45,0.29-0.71s-0.11-0.521-0.29-0.71C26.84,34.92,26.16,34.92,25.79,35.29z"
   id="path10464"
   style="fill:#444444;fill-opacity:0.81909549" />
	<path
   d="M33.5,4h-6v10h6V4z M31.5,12h-2V6h2V12z"
   id="path10466"
   style="fill:#444444;fill-opacity:0.81909549" />
</g>
<g
   id="g10470">
</g>
<g
   id="g10472">
</g>
<g
   id="g10474">
</g>
<g
   id="g10476">
</g>
<g
   id="g10478">
</g>
<g
   id="g10480">
</g>
<g
   id="g10482">
</g>
<g
   id="g10484">
</g>
<g
   id="g10486">
</g>
<g
   id="g10488">
</g>
<g
   id="g10490">
</g>
<g
   id="g10492">
</g>
<g
   id="g10494">
</g>
<g
   id="g10496">
</g>
<g
   id="g10498">
</g>
</svg>